<?xml version="1.0" standalone="no"?>
<!DOCTYPE svg PUBLIC "-//W3C//DTD SVG 20010904//EN"
 "http://www.w3.org/TR/2001/REC-SVG-20010904/DTD/svg10.dtd">
<svg version="1.0" xmlns="http://www.w3.org/2000/svg" width="192.000000pt" height="192.000000pt" viewBox="0 0 192.000000 192.000000" preserveAspectRatio="xMidYMid meet">
    <g transform="translate(0.000000,192.000000) scale(0.100000,-0.100000)" fill="#000000" stroke="none">
        <path d="M675 1786 c-73 -31 -102 -92 -174 -356 -48 -176 -73 -260 -156 -525
        -47 -154 -93 -309 -100 -345 -8 -36 -26 -98 -40 -139 -14 -41 -25 -93 -25
        -117 0 -36 5 -47 40 -78 l40 -36 631 0 c685 0 663 -2 708 56 29 37 27 70 -19
        216 -101 323 -121 390 -149 498 -17 63 -39 142 -49 175 l-18 60 54 67 c46 57
        57 66 72 58 47 -25 123 -3 146 41 19 38 18 62 -7 93 l-20 26 30 37 c106 130
        111 138 111 169 0 40 -19 56 -66 56 -38 0 -69 -26 -171 -145 -28 -32 -35 -36
        -58 -27 -86 33 -170 -65 -119 -139 16 -22 15 -24 -4 -44 -21 -20 -21 -20 -28
        -1 -3 10 -10 30 -14 44 -5 14 -27 84 -49 156 -66 212 -69 214 -343 214 -137
        -1 -202 -5 -223 -14z m375 -131 c38 -20 49 -42 98 -200 56 -176 63 -213 49
        -236 -7 -11 -15 -19 -18 -19 -4 0 -51 -52 -105 -116 l-99 -116 -3 36 -3 36
        -70 0 -69 0 0 -65 0 -64 -38 -10 c-105 -29 -202 -155 -202 -263 l0 -28 305 0
        305 0 0 55 c0 68 -23 118 -80 169 l-41 37 89 102 88 103 33 -106 c18 -58 48
        -155 67 -217 39 -124 37 -140 -16 -168 -44 -22 -837 -22 -880 0 -44 23 -46 53
        -12 173 17 59 37 132 45 162 8 30 30 107 50 170 20 63 64 204 97 314 64 207
        80 242 114 256 39 16 264 12 296 -5z m469 -180 c79 -51 89 -76 40 -104 -25
        -14 -30 -12 -102 34 -42 26 -78 54 -81 62 -7 17 40 67 57 60 7 -3 46 -26 86
        -52z m-502 -651 c53 -25 114 -89 127 -131 l7 -23 -245 0 c-281 0 -276 -2 -211
        84 78 101 203 128 322 70z"/>
        <path d="M865 1568 c-29 -17 -35 -28 -35 -75 l0 -43 70 0 70 0 0 49 c0 40 -4
        53 -22 65 -26 19 -55 20 -83 4z"/>
        <path d="M830 1145 l0 -95 70 0 70 0 0 95 0 95 -70 0 -70 0 0 -95z"/>
    </g>
</svg>
